<svg xmlns="http://www.w3.org/2000/svg" xmlns:xlink="http://www.w3.org/1999/xlink" width="1920" zoomAndPan="magnify" viewBox="0 0 1440 809.999993" height="1080" preserveAspectRatio="xMidYMid meet" version="1.2"><defs><clipPath id="62dad22432"><path d="M 551.175781 236.175781 L 888.675781 236.175781 L 888.675781 573.675781 L 551.175781 573.675781 Z M 551.175781 236.175781 "/></clipPath></defs><g id="e4999fee14"><g clip-rule="nonzero" clip-path="url(#62dad22432)"><path style=" stroke:none;fill-rule:nonzero;fill:#000000;fill-opacity:1;" d="M 627.371094 562.789062 L 562.070312 562.789062 L 562.070312 329.132812 L 714.042969 329.132812 L 714.042969 333.886719 C 714.042969 336.894531 716.480469 339.335938 719.492188 339.335938 C 722.5 339.335938 724.941406 336.894531 724.941406 333.886719 L 724.941406 241.613281 C 724.941406 238.601562 722.5 236.164062 719.492188 236.164062 L 556.621094 236.164062 C 553.613281 236.164062 551.171875 238.601562 551.171875 241.613281 L 551.171875 568.238281 C 551.171875 571.25 553.613281 573.6875 556.621094 573.6875 L 627.371094 573.6875 C 630.382812 573.6875 632.820312 571.25 632.820312 568.238281 C 632.820312 565.230469 630.382812 562.789062 627.371094 562.789062 Z M 714.042969 247.0625 L 714.042969 318.234375 L 562.070312 318.234375 L 562.070312 247.0625 Z M 585.035156 303.226562 C 592.3125 303.226562 598.234375 297.304688 598.234375 290.027344 L 598.234375 266.070312 C 598.234375 258.789062 592.3125 252.867188 585.035156 252.867188 C 577.753906 252.867188 571.832031 258.789062 571.832031 266.070312 L 571.832031 290.027344 C 571.832031 297.304688 577.753906 303.226562 585.035156 303.226562 Z M 582.730469 266.070312 C 582.730469 264.820312 583.785156 263.765625 585.035156 263.765625 C 586.28125 263.765625 587.339844 264.820312 587.339844 266.070312 L 587.339844 290.027344 C 587.339844 291.296875 586.304688 292.332031 585.035156 292.332031 C 583.761719 292.332031 582.730469 291.296875 582.730469 290.027344 Z M 571.832031 379.40625 L 571.832031 440.859375 C 571.832031 448.140625 577.753906 454.0625 585.035156 454.0625 C 592.3125 454.0625 598.234375 448.140625 598.234375 440.859375 L 598.234375 379.40625 C 598.234375 372.128906 592.3125 366.203125 585.035156 366.203125 C 577.753906 366.203125 571.832031 372.128906 571.832031 379.40625 Z M 587.339844 379.40625 L 587.339844 440.859375 C 587.339844 442.109375 586.285156 443.164062 585.035156 443.164062 C 583.785156 443.164062 582.730469 442.109375 582.730469 440.859375 L 582.730469 379.40625 C 582.730469 378.15625 583.785156 377.101562 585.035156 377.101562 C 586.28125 377.101562 587.339844 378.15625 587.339844 379.40625 Z M 867.414062 350.445312 L 718.332031 350.445312 C 706.597656 350.445312 697.050781 359.996094 697.050781 371.730469 L 697.050781 435.535156 C 697.050781 438.546875 699.488281 440.984375 702.5 440.984375 C 705.507812 440.984375 707.949219 438.546875 707.949219 435.535156 L 707.949219 416.757812 L 877.78125 416.757812 L 877.78125 562.789062 L 807.019531 562.789062 C 804.011719 562.789062 801.574219 565.230469 801.574219 568.238281 C 801.574219 571.25 804.011719 573.6875 807.019531 573.6875 L 883.230469 573.6875 C 886.238281 573.6875 888.679688 571.25 888.679688 568.238281 L 888.679688 371.730469 C 888.679688 359.996094 879.136719 350.445312 867.414062 350.445312 Z M 707.949219 405.859375 L 707.949219 371.730469 C 707.949219 366.003906 712.605469 361.34375 718.335938 361.34375 L 867.414062 361.34375 C 873.128906 361.34375 877.78125 366.003906 877.78125 371.730469 L 877.78125 405.859375 Z M 804.875 549.539062 C 802.367188 549.539062 800.109375 547.796875 799.554688 545.242188 C 798.917969 542.300781 800.785156 539.402344 803.726562 538.765625 C 826.953125 533.734375 843.8125 512.796875 843.8125 488.984375 C 843.8125 460.890625 820.957031 438.035156 792.863281 438.035156 C 786.375 438.035156 780.054688 439.234375 774.078125 441.605469 C 771.28125 442.714844 768.113281 441.34375 767.007812 438.546875 C 765.898438 435.75 767.265625 432.582031 770.0625 431.472656 C 777.324219 428.59375 784.996094 427.136719 792.863281 427.136719 C 826.964844 427.136719 854.710938 454.878906 854.710938 488.984375 C 854.710938 503.191406 849.773438 517.066406 840.8125 528.054688 C 831.976562 538.886719 819.625 546.472656 806.035156 549.414062 C 805.644531 549.5 805.257812 549.539062 804.875 549.539062 Z M 740.59375 373.707031 C 733.3125 373.707031 727.390625 379.628906 727.390625 386.910156 C 727.390625 394.191406 733.3125 400.09375 740.59375 400.09375 C 747.875 400.09375 753.796875 394.179688 753.796875 386.910156 C 753.796875 379.640625 747.875 373.707031 740.59375 373.707031 Z M 740.59375 389.195312 C 739.320312 389.195312 738.289062 388.171875 738.289062 386.910156 C 738.289062 385.640625 739.324219 384.605469 740.59375 384.605469 C 741.863281 384.605469 742.898438 385.640625 742.898438 386.910156 C 742.898438 388.171875 741.863281 389.195312 740.59375 389.195312 Z M 772.417969 373.707031 C 765.140625 373.707031 759.214844 379.628906 759.214844 386.910156 C 759.214844 394.191406 765.140625 400.09375 772.417969 400.09375 C 779.699219 400.09375 785.621094 394.179688 785.621094 386.910156 C 785.621094 379.640625 779.699219 373.707031 772.417969 373.707031 Z M 772.417969 389.195312 C 771.148438 389.195312 770.113281 388.171875 770.113281 386.910156 C 770.113281 385.640625 771.148438 384.605469 772.417969 384.605469 C 773.691406 384.605469 774.722656 385.640625 774.722656 386.910156 C 774.722656 388.171875 773.6875 389.195312 772.417969 389.195312 Z M 851.085938 386.910156 C 851.085938 389.921875 848.644531 392.359375 845.636719 392.359375 L 801.445312 392.359375 C 798.4375 392.359375 796 389.921875 796 386.910156 C 796 383.902344 798.4375 381.460938 801.445312 381.460938 L 845.636719 381.460938 C 848.644531 381.460938 851.085938 383.902344 851.085938 386.910156 Z M 788.851562 448.777344 L 647.507812 448.777344 C 644.5 448.777344 642.058594 451.214844 642.058594 454.226562 L 642.058594 568.238281 C 642.058594 571.25 644.5 573.6875 647.507812 573.6875 L 788.851562 573.6875 C 791.863281 573.6875 794.300781 571.25 794.300781 568.238281 L 794.300781 454.226562 C 794.300781 451.214844 791.863281 448.777344 788.851562 448.777344 Z M 783.402344 562.789062 L 652.957031 562.789062 L 652.957031 459.675781 L 783.402344 459.675781 Z M 684.195312 550.8125 L 763.914062 550.8125 C 766.921875 550.8125 769.363281 548.371094 769.363281 545.363281 L 769.363281 477.101562 C 769.363281 474.09375 766.921875 471.652344 763.914062 471.652344 L 684.195312 471.652344 C 681.183594 471.652344 678.746094 474.09375 678.746094 477.101562 L 678.746094 545.363281 C 678.746094 548.371094 681.183594 550.8125 684.195312 550.8125 Z M 689.644531 482.550781 L 758.464844 482.550781 L 758.464844 539.914062 L 689.644531 539.914062 Z M 658.597656 533.984375 C 658.597656 530.296875 661.589844 527.289062 665.292969 527.289062 C 668.976562 527.289062 671.964844 530.300781 671.964844 533.984375 C 671.964844 537.667969 668.976562 540.675781 665.292969 540.675781 C 661.589844 540.675781 658.597656 537.667969 658.597656 533.984375 Z M 658.597656 488.480469 C 658.597656 484.777344 661.589844 481.789062 665.292969 481.789062 C 668.976562 481.789062 671.964844 484.777344 671.964844 488.480469 C 671.964844 492.167969 668.976562 495.15625 665.292969 495.15625 C 661.589844 495.15625 658.597656 492.164062 658.597656 488.480469 Z M 658.597656 511.222656 C 658.597656 507.539062 661.589844 504.546875 665.292969 504.546875 C 668.976562 504.546875 671.964844 507.539062 671.964844 511.222656 C 671.964844 514.925781 668.976562 517.914062 665.292969 517.914062 C 661.589844 517.914062 658.597656 514.925781 658.597656 511.222656 Z M 658.597656 511.222656 "/></g></g></svg>