<svg xmlns="http://www.w3.org/2000/svg" xmlns:xlink="http://www.w3.org/1999/xlink" width="1920" zoomAndPan="magnify" viewBox="0 0 1440 809.999993" height="1080" preserveAspectRatio="xMidYMid meet" version="1.2"><defs><clipPath id="20d841bbf5"><path d="M 551.234375 253.113281 L 888 253.113281 L 888 556.863281 L 551.234375 556.863281 Z M 551.234375 253.113281 "/></clipPath></defs><g id="34980b9189"><path style=" stroke:none;fill-rule:nonzero;fill:#000000;fill-opacity:1;" d="M 733.835938 379.816406 C 711.125 368.496094 683.984375 368.496094 661.273438 379.816406 C 658.460938 381.222656 657.335938 384.597656 658.742188 387.339844 C 660.148438 390.152344 663.523438 391.277344 666.265625 389.871094 C 685.8125 380.097656 709.15625 380.097656 728.703125 389.871094 C 729.476562 390.292969 730.390625 390.433594 731.234375 390.433594 C 733.273438 390.433594 735.3125 389.308594 736.296875 387.339844 C 737.703125 384.597656 736.578125 381.222656 733.835938 379.816406 Z M 733.835938 379.816406 "/><path style=" stroke:none;fill-rule:nonzero;fill:#000000;fill-opacity:1;" d="M 632.65625 417.222656 C 632.65625 417.960938 632.585938 418.691406 632.441406 419.417969 C 632.296875 420.140625 632.082031 420.84375 631.800781 421.527344 C 631.519531 422.210938 631.171875 422.859375 630.761719 423.472656 C 630.351562 424.085938 629.882812 424.65625 629.363281 425.175781 C 628.839844 425.699219 628.273438 426.164062 627.65625 426.574219 C 627.042969 426.984375 626.394531 427.332031 625.710938 427.617188 C 625.03125 427.898438 624.328125 428.113281 623.601562 428.253906 C 622.878906 428.398438 622.144531 428.472656 621.40625 428.472656 C 620.667969 428.472656 619.9375 428.398438 619.210938 428.253906 C 618.488281 428.113281 617.785156 427.898438 617.101562 427.617188 C 616.417969 427.332031 615.769531 426.984375 615.15625 426.574219 C 614.542969 426.164062 613.972656 425.699219 613.453125 425.175781 C 612.929688 424.65625 612.464844 424.085938 612.054688 423.472656 C 611.644531 422.859375 611.296875 422.210938 611.011719 421.527344 C 610.730469 420.84375 610.515625 420.140625 610.375 419.417969 C 610.230469 418.691406 610.15625 417.960938 610.15625 417.222656 C 610.15625 416.484375 610.230469 415.75 610.375 415.027344 C 610.515625 414.300781 610.730469 413.597656 611.011719 412.917969 C 611.296875 412.234375 611.644531 411.585938 612.054688 410.972656 C 612.464844 410.359375 612.929688 409.789062 613.453125 409.265625 C 613.972656 408.746094 614.542969 408.277344 615.15625 407.867188 C 615.769531 407.457031 616.417969 407.109375 617.101562 406.828125 C 617.785156 406.546875 618.488281 406.332031 619.210938 406.1875 C 619.9375 406.042969 620.667969 405.972656 621.40625 405.972656 C 622.144531 405.972656 622.878906 406.042969 623.601562 406.1875 C 624.328125 406.332031 625.03125 406.546875 625.710938 406.828125 C 626.394531 407.109375 627.042969 407.457031 627.65625 407.867188 C 628.273438 408.277344 628.839844 408.746094 629.363281 409.265625 C 629.882812 409.789062 630.351562 410.359375 630.761719 410.972656 C 631.171875 411.585938 631.519531 412.234375 631.800781 412.917969 C 632.082031 413.597656 632.296875 414.300781 632.441406 415.027344 C 632.585938 415.75 632.65625 416.484375 632.65625 417.222656 Z M 632.65625 417.222656 "/><g clip-rule="nonzero" clip-path="url(#20d841bbf5)"><path style=" stroke:none;fill-rule:nonzero;fill:#000000;fill-opacity:1;" d="M 886.839844 429.878906 C 883.605469 425.238281 879.667969 421.300781 875.097656 418.207031 C 878.261719 415.324219 880.441406 411.527344 881.214844 407.167969 C 882.199219 401.964844 881.074219 396.761719 878.050781 392.402344 C 875.097656 388.042969 870.597656 385.160156 865.394531 384.246094 C 860.191406 383.261719 854.988281 384.386719 850.628906 387.410156 C 846.269531 390.363281 843.386719 394.863281 842.472656 400.066406 C 841.839844 403.652344 842.121094 407.238281 843.386719 410.613281 C 838.816406 411.175781 834.316406 412.511719 830.027344 414.480469 L 826.722656 415.816406 C 820.464844 400.910156 809.285156 387.269531 793.746094 376.019531 C 773.566406 361.394531 747.902344 352.253906 720.195312 349.582031 C 740.796875 343.746094 755.988281 324.761719 755.988281 302.261719 C 755.988281 275.191406 733.90625 253.113281 706.835938 253.113281 C 679.765625 253.113281 657.6875 275.191406 657.6875 302.261719 C 657.6875 324.128906 672.101562 342.761719 691.929688 349.089844 C 680.679688 349.792969 669.640625 351.550781 659.023438 354.433594 C 658.601562 354.363281 658.25 354.363281 657.828125 354.363281 L 586.53125 359.144531 C 581.820312 359.425781 577.742188 362.308594 575.84375 366.597656 C 573.945312 370.886719 574.507812 375.808594 577.390625 379.535156 C 580.976562 384.175781 586.039062 390.503906 591.03125 396.480469 C 584.84375 404.425781 580.273438 412.933594 577.390625 421.863281 L 564.03125 421.863281 C 557.070312 421.863281 551.375 427.558594 551.375 434.519531 L 551.375 471.082031 C 551.375 478.042969 557.070312 483.738281 564.03125 483.738281 L 585.476562 483.738281 C 591.03125 492.808594 598.484375 501.105469 607.625 508.488281 L 607.625 544.207031 C 607.625 551.167969 613.320312 556.863281 620.28125 556.863281 L 645.59375 556.863281 C 652.554688 556.863281 658.25 551.167969 658.25 544.207031 L 658.25 533.660156 C 672.59375 537.597656 687.710938 539.566406 703.25 539.566406 C 714.710938 539.566406 726.03125 538.441406 737 536.332031 L 737 544.207031 C 737 551.167969 742.695312 556.863281 749.65625 556.863281 L 774.972656 556.863281 C 781.933594 556.863281 787.628906 551.167969 787.628906 544.207031 L 787.628906 516.574219 C 816.246094 498.433594 832.628906 472.207031 832.628906 444.152344 L 832.628906 443.730469 C 832.628906 438.105469 831.925781 432.480469 830.589844 427.066406 C 830.589844 427.066406 830.660156 427.066406 830.660156 426.996094 C 837.761719 422.355469 846.128906 420.527344 854.496094 421.792969 C 855.761719 422.285156 857.027344 422.707031 858.433594 422.917969 C 859.066406 423.058594 859.699219 423.128906 860.332031 423.199219 C 867.363281 425.519531 873.410156 430.089844 877.699219 436.277344 C 878.824219 437.894531 880.582031 438.738281 882.339844 438.738281 C 883.464844 438.738281 884.519531 438.386719 885.503906 437.753906 C 887.964844 435.925781 888.597656 432.410156 886.839844 429.878906 Z M 668.9375 302.261719 C 668.9375 281.378906 685.953125 264.363281 706.835938 264.363281 C 727.71875 264.363281 744.734375 281.378906 744.734375 302.261719 C 744.734375 323.144531 727.71875 340.160156 706.835938 340.160156 C 685.953125 340.160156 668.9375 323.144531 668.9375 302.261719 Z M 821.308594 444.152344 C 821.308594 468.972656 805.910156 492.457031 779.050781 508.558594 C 777.363281 509.542969 776.308594 511.441406 776.308594 513.410156 L 776.308594 544.207031 C 776.308594 544.980469 775.675781 545.613281 774.902344 545.613281 L 749.589844 545.613281 C 748.816406 545.613281 748.183594 544.980469 748.183594 544.207031 L 748.183594 529.300781 C 748.183594 527.542969 747.410156 525.925781 746.003906 524.871094 C 745.015625 524.097656 743.75 523.675781 742.554688 523.675781 C 742.132812 523.675781 741.640625 523.746094 741.21875 523.816406 C 728.984375 526.769531 716.1875 528.316406 703.179688 528.316406 C 686.09375 528.316406 669.640625 525.785156 654.3125 520.722656 C 652.625 520.160156 650.726562 520.441406 649.25 521.496094 C 647.773438 522.550781 646.929688 524.238281 646.929688 526.066406 L 646.929688 544.207031 C 646.929688 544.980469 646.296875 545.613281 645.523438 545.613281 L 620.210938 545.613281 C 619.4375 545.613281 618.804688 544.980469 618.804688 544.207031 L 618.804688 505.746094 C 618.804688 503.988281 617.960938 502.371094 616.625 501.316406 C 606.710938 493.722656 598.90625 484.933594 593.492188 475.371094 C 592.507812 473.613281 590.609375 472.488281 588.570312 472.488281 L 563.960938 472.488281 C 563.1875 472.488281 562.554688 471.855469 562.554688 471.082031 L 562.554688 434.519531 C 562.554688 433.746094 563.1875 433.113281 563.960938 433.113281 L 581.539062 433.113281 C 584.070312 433.113281 586.320312 431.355469 586.953125 428.894531 C 589.554688 418.699219 594.828125 408.996094 602.492188 400.136719 C 604.320312 398.027344 604.320312 394.933594 602.492188 392.824219 C 596.726562 386.074219 590.398438 378.128906 586.179688 372.644531 C 585.757812 372.082031 585.828125 371.589844 586.039062 371.238281 C 586.179688 370.886719 586.53125 370.464844 587.234375 370.394531 L 655.296875 365.824219 C 656 366.105469 656.703125 366.316406 657.546875 366.316406 C 658.039062 366.316406 658.53125 366.246094 659.023438 366.105469 C 673.015625 362.097656 687.851562 360.058594 703.039062 360.058594 C 767.941406 360.058594 820.886719 397.675781 821.167969 443.800781 L 821.167969 444.152344 Z M 870.175781 405.128906 C 869.753906 407.378906 868.488281 409.277344 866.660156 410.542969 C 865.324219 411.457031 863.777344 411.949219 862.160156 412.019531 C 860.824219 411.597656 859.488281 411.316406 858.152344 411.035156 C 858.082031 411.035156 857.941406 411.035156 857.871094 410.964844 C 856.746094 410.332031 855.761719 409.488281 854.988281 408.363281 C 853.722656 406.535156 853.230469 404.285156 853.652344 402.035156 C 854.074219 399.785156 855.339844 397.886719 857.167969 396.621094 C 858.574219 395.636719 860.261719 395.144531 861.949219 395.144531 C 862.441406 395.144531 863.003906 395.214844 863.496094 395.285156 C 865.746094 395.707031 867.644531 396.972656 868.910156 398.800781 C 870.105469 400.628906 870.597656 402.878906 870.175781 405.128906 Z M 870.175781 405.128906 "/></g><path style=" stroke:none;fill-rule:nonzero;fill:#000000;fill-opacity:1;" d="M 706.976562 336.996094 C 710.070312 336.996094 712.601562 334.535156 712.601562 331.441406 L 712.601562 328.839844 C 719 326.871094 723.570312 321.597656 723.570312 315.410156 L 723.570312 313.792969 C 723.570312 309.152344 721.039062 304.863281 716.75 302.191406 L 703.601562 294.035156 C 702.6875 293.472656 702.054688 292.699219 702.054688 291.996094 L 702.054688 289.464844 C 702.054688 288.269531 704.023438 286.441406 707.1875 286.441406 C 710.351562 286.441406 712.320312 288.199219 712.320312 289.464844 L 712.320312 292.347656 C 712.320312 295.441406 714.851562 297.972656 717.945312 297.972656 C 721.039062 297.972656 723.570312 295.441406 723.570312 292.347656 L 723.570312 289.464844 C 723.570312 283.347656 719.070312 278.074219 712.8125 276.105469 L 712.8125 273.785156 C 712.8125 270.691406 710.28125 268.160156 707.1875 268.160156 C 704.09375 268.160156 701.5625 270.691406 701.5625 273.785156 L 701.5625 276.105469 C 695.304688 278.074219 690.804688 283.347656 690.804688 289.464844 L 690.804688 291.996094 C 690.804688 296.636719 693.335938 300.925781 697.625 303.597656 L 710.773438 311.753906 C 711.6875 312.316406 712.320312 313.089844 712.320312 313.792969 L 712.320312 315.410156 C 712.320312 316.605469 710.351562 318.433594 707.1875 318.433594 L 706.695312 318.433594 C 703.53125 318.433594 701.5625 316.675781 701.5625 315.410156 L 701.5625 313.792969 C 701.5625 310.699219 699.03125 308.167969 695.9375 308.167969 C 692.84375 308.167969 690.3125 310.699219 690.3125 313.792969 L 690.3125 315.410156 C 690.3125 321.667969 694.953125 326.941406 701.351562 328.839844 L 701.351562 331.371094 C 701.351562 334.464844 703.8125 336.996094 706.976562 336.996094 Z M 706.976562 336.996094 "/></g></svg>