<svg xmlns="http://www.w3.org/2000/svg" xmlns:xlink="http://www.w3.org/1999/xlink" width="1920" zoomAndPan="magnify" viewBox="0 0 1440 809.999993" height="1080" preserveAspectRatio="xMidYMid meet" version="1.2"><defs><clipPath id="3694713e3b"><path d="M 551.128906 238.238281 L 888.628906 238.238281 L 888.628906 571.988281 L 551.128906 571.988281 Z M 551.128906 238.238281 "/></clipPath></defs><g id="36b3b632e4"><g clip-rule="nonzero" clip-path="url(#3694713e3b)"><path style=" stroke:none;fill-rule:evenodd;fill:#000000;fill-opacity:1;" d="M 699.574219 453.582031 L 671.207031 481.988281 C 666.3125 486.894531 664.097656 493.375 664.953125 500.253906 L 668.507812 528.742188 C 668.976562 532.519531 667.851562 535.808594 665.164062 538.5 L 645.648438 558.042969 C 643.203125 560.488281 640.339844 561.621094 636.878906 561.472656 L 608.371094 560.328125 L 637.292969 531.363281 C 638.285156 530.367188 638.832031 528.996094 638.785156 527.578125 L 637.761719 496.648438 C 637.675781 493.957031 635.519531 491.796875 632.824219 491.707031 L 601.945312 490.683594 C 600.53125 490.636719 599.164062 491.183594 598.164062 492.183594 L 569.242188 521.148438 L 568.097656 492.59375 C 567.953125 489.136719 569.078125 486.265625 571.519531 483.816406 L 591.035156 464.277344 C 593.722656 461.578125 597.007812 460.449219 600.785156 460.921875 L 629.230469 464.480469 C 636.019531 465.332031 642.480469 463.117188 647.464844 458.214844 L 655.488281 450.191406 L 762.964844 342.5625 L 774.996094 330.507812 C 779.882812 325.585938 782.09375 319.105469 781.242188 312.253906 L 777.695312 283.765625 C 777.214844 279.988281 778.34375 276.703125 781.03125 274.011719 L 800.546875 254.46875 C 802.996094 252.023438 805.859375 250.890625 809.3125 251.039062 L 837.828125 252.183594 L 808.902344 281.148438 C 807.898438 282.144531 807.363281 283.515625 807.414062 284.933594 L 808.433594 315.863281 C 808.519531 318.554688 810.679688 320.714844 813.359375 320.804688 L 844.257812 321.828125 C 845.652344 321.867188 847.03125 321.328125 848.035156 320.328125 L 876.949219 291.371094 L 878.097656 319.917969 C 878.238281 323.375 877.113281 326.253906 874.667969 328.695312 L 855.160156 348.234375 C 852.464844 350.933594 849.191406 352.0625 845.410156 351.589844 L 816.960938 348.03125 C 810.09375 347.171875 803.617188 349.394531 798.722656 354.296875 Z M 790.738281 386.847656 L 780.660156 386.847656 L 708.292969 459.320312 L 708.292969 469.410156 L 721.722656 473.789062 C 723.390625 474.324219 724.660156 475.683594 725.09375 477.375 C 726.503906 482.871094 728.6875 488.140625 731.582031 493.042969 C 732.472656 494.550781 732.53125 496.40625 731.738281 497.964844 L 725.320312 510.578125 L 735.386719 520.664062 L 747.988281 514.234375 C 749.546875 513.441406 751.398438 513.496094 752.902344 514.390625 C 757.796875 517.292969 763.0625 519.476562 768.550781 520.886719 C 770.238281 521.324219 771.59375 522.59375 772.132812 524.261719 L 776.496094 537.71875 L 790.738281 537.71875 L 795.105469 524.257812 C 795.648438 522.59375 797.003906 521.324219 798.695312 520.886719 C 804.179688 519.476562 809.441406 517.289062 814.339844 514.390625 C 815.84375 513.503906 817.695312 513.441406 819.253906 514.234375 L 831.847656 520.664062 L 841.921875 510.578125 L 835.503906 497.964844 C 834.710938 496.402344 834.765625 494.550781 835.65625 493.042969 C 838.546875 488.140625 840.734375 482.871094 842.144531 477.375 C 842.582031 475.683594 843.847656 474.324219 845.515625 473.78125 L 858.949219 469.410156 L 858.949219 455.152344 L 845.511719 450.785156 C 843.847656 450.238281 842.582031 448.886719 842.144531 447.191406 C 840.734375 441.695312 838.546875 436.421875 835.65625 431.519531 C 834.765625 430.015625 834.710938 428.160156 835.503906 426.597656 L 841.921875 413.984375 L 831.847656 403.898438 L 819.253906 410.328125 C 817.695312 411.121094 815.835938 411.066406 814.332031 410.171875 C 809.441406 407.269531 804.179688 405.085938 798.695312 403.675781 C 796.996094 403.238281 795.648438 401.972656 795.105469 400.300781 Z M 647.917969 441.453125 L 649.765625 441.453125 L 754.242188 336.828125 L 754.242188 334.976562 L 736.367188 329.164062 C 734.707031 328.625 733.433594 327.269531 733 325.570312 C 731.1875 318.511719 728.390625 311.746094 724.671875 305.460938 C 723.777344 303.957031 723.726562 302.09375 724.515625 300.53125 L 733.054688 283.753906 L 718.980469 269.65625 L 702.226562 278.207031 C 700.664062 279 698.804688 278.945312 697.300781 278.050781 C 691.015625 274.328125 684.261719 271.519531 677.21875 269.710938 C 675.523438 269.273438 674.167969 268 673.632812 266.339844 L 667.828125 248.4375 L 647.917969 248.4375 L 642.109375 266.339844 C 641.570312 268 640.214844 269.273438 638.519531 269.710938 C 631.480469 271.519531 624.722656 274.328125 618.441406 278.050781 C 616.9375 278.9375 615.078125 279 613.519531 278.199219 L 596.765625 269.660156 L 582.6875 283.753906 L 591.226562 300.53125 C 592.019531 302.09375 591.960938 303.957031 591.070312 305.460938 C 587.351562 311.75 584.550781 318.511719 582.746094 325.570312 C 582.304688 327.269531 581.039062 328.625 579.378906 329.164062 L 561.5 334.980469 L 561.5 354.917969 L 579.378906 360.730469 C 581.039062 361.269531 582.304688 362.625 582.746094 364.324219 C 584.550781 371.375 587.351562 378.144531 591.070312 384.433594 C 591.960938 385.9375 592.023438 387.800781 591.226562 389.363281 L 582.6875 406.136719 L 596.765625 420.234375 L 613.519531 411.683594 C 615.078125 410.894531 616.933594 410.949219 618.441406 411.839844 C 624.722656 415.5625 631.480469 418.375 638.519531 420.179688 C 640.214844 420.617188 641.570312 421.890625 642.109375 423.554688 Z M 815.699219 358.175781 L 844.144531 361.734375 C 851.007812 362.59375 857.492188 360.363281 862.382812 355.46875 L 881.894531 335.925781 C 886.339844 331.476562 888.550781 325.800781 888.304688 319.507812 L 886.6875 279.285156 C 886.511719 274.84375 881.109375 272.742188 877.980469 275.878906 L 842.378906 311.53125 L 818.484375 310.738281 L 817.695312 286.808594 L 853.289062 251.160156 C 856.441406 248.007812 854.320312 242.613281 849.886719 242.433594 L 809.726562 240.816406 C 803.445312 240.574219 797.773438 242.78125 793.324219 247.234375 L 773.8125 266.777344 C 768.921875 271.675781 766.695312 278.164062 767.554688 285.035156 L 771.105469 313.527344 C 771.574219 317.292969 770.449219 320.578125 767.761719 323.285156 L 763.167969 327.886719 C 762.578125 327.21875 761.820312 326.6875 760.929688 326.402344 L 742.144531 320.285156 C 740.367188 314.1875 737.929688 308.300781 734.871094 302.722656 L 743.839844 285.089844 C 744.84375 283.113281 744.464844 280.71875 742.902344 279.148438 L 723.574219 259.796875 C 722.011719 258.230469 719.617188 257.847656 717.648438 258.859375 L 700.039062 267.839844 C 694.460938 264.777344 688.585938 262.335938 682.496094 260.554688 L 676.390625 241.746094 C 675.710938 239.636719 673.746094 238.210938 671.535156 238.210938 L 644.203125 238.210938 C 641.992188 238.210938 640.03125 239.636719 639.347656 241.746094 L 633.253906 260.554688 C 627.164062 262.335938 621.28125 264.777344 615.703125 267.839844 L 598.097656 258.859375 C 596.128906 257.855469 593.734375 258.230469 592.167969 259.800781 L 572.84375 279.152344 C 571.277344 280.71875 570.902344 283.113281 571.90625 285.089844 L 580.878906 302.722656 C 577.820312 308.300781 575.378906 314.191406 573.597656 320.285156 L 554.816406 326.402344 C 552.714844 327.085938 551.285156 329.046875 551.285156 331.265625 L 551.285156 358.632812 C 551.285156 360.847656 552.714844 362.8125 554.816406 363.496094 L 573.605469 369.609375 C 575.378906 375.707031 577.820312 381.589844 580.875 387.171875 L 571.90625 404.808594 C 570.902344 406.78125 571.277344 409.175781 572.84375 410.746094 L 592.167969 430.09375 C 593.734375 431.664062 596.121094 432.039062 598.097656 431.035156 L 615.703125 422.050781 C 621.28125 425.117188 627.164062 427.558594 633.253906 429.339844 L 639.347656 448.152344 C 639.640625 449.046875 640.167969 449.800781 640.84375 450.394531 C 637.796875 453.390625 634.863281 454.882812 630.5 454.335938 L 602.050781 450.777344 C 595.183594 449.917969 588.707031 452.140625 583.8125 457.042969 L 564.296875 476.585938 C 559.851562 481.039062 557.636719 486.714844 557.890625 493.003906 L 559.503906 533.226562 C 559.683594 537.660156 565.078125 539.777344 568.21875 536.636719 L 603.820312 500.980469 L 627.714844 501.773438 L 628.503906 525.703125 L 592.898438 561.351562 C 589.769531 564.496094 591.875 569.898438 596.3125 570.078125 L 636.472656 571.695312 C 642.714844 571.953125 648.40625 569.742188 652.867188 565.277344 L 672.378906 545.738281 C 677.277344 540.835938 679.496094 534.351562 678.636719 527.476562 L 675.082031 498.992188 C 674.613281 495.207031 675.738281 491.921875 678.433594 489.226562 L 698.078125 469.546875 L 698.078125 473.128906 C 698.078125 475.34375 699.5 477.308594 701.605469 477.996094 L 715.964844 482.667969 C 717.324219 487.203125 719.144531 491.59375 721.390625 495.773438 L 714.53125 509.246094 C 713.523438 511.222656 713.90625 513.625 715.472656 515.1875 L 730.792969 530.527344 C 732.351562 532.09375 734.746094 532.46875 736.71875 531.464844 L 750.175781 524.601562 C 754.351562 526.851562 758.734375 528.671875 763.261719 530.035156 L 767.925781 544.40625 C 768.613281 546.519531 770.578125 547.949219 772.789062 547.949219 L 794.449219 547.949219 C 796.664062 547.949219 798.625 546.523438 799.304688 544.40625 L 803.972656 530.027344 C 808.503906 528.671875 812.878906 526.851562 817.054688 524.601562 L 830.515625 531.464844 C 832.488281 532.46875 834.882812 532.09375 836.445312 530.527344 L 851.765625 515.1875 C 853.332031 513.625 853.707031 511.222656 852.707031 509.246094 L 845.84375 495.773438 C 848.097656 491.59375 849.917969 487.203125 851.277344 482.667969 L 865.625 477.996094 C 867.734375 477.308594 869.164062 475.34375 869.164062 473.128906 L 869.164062 451.4375 C 869.164062 449.222656 867.734375 447.261719 865.625 446.570312 L 851.269531 441.902344 C 849.910156 437.367188 848.089844 432.976562 845.84375 428.796875 L 852.707031 415.324219 C 853.707031 413.34375 853.332031 410.953125 851.765625 409.382812 L 836.445312 394.042969 C 834.882812 392.476562 832.488281 392.101562 830.515625 393.101562 L 817.0625 399.96875 C 812.878906 397.71875 808.503906 395.898438 803.972656 394.535156 L 799.304688 380.160156 C 798.625 378.046875 796.664062 376.621094 794.449219 376.621094 L 790.875 376.621094 L 805.949219 361.527344 C 808.636719 358.828125 811.921875 357.707031 815.699219 358.175781 Z M 783.617188 427.148438 C 764.273438 427.148438 748.53125 442.90625 748.53125 462.285156 C 748.53125 481.65625 764.273438 497.414062 783.617188 497.414062 C 802.964844 497.414062 818.703125 481.65625 818.703125 462.285156 C 818.703125 442.90625 802.964844 427.148438 783.617188 427.148438 Z M 783.617188 507.640625 C 808.597656 507.640625 828.914062 487.292969 828.914062 462.285156 C 828.914062 437.269531 808.597656 416.921875 783.617188 416.921875 C 758.640625 416.921875 738.320312 437.269531 738.320312 462.285156 C 738.316406 487.292969 758.640625 507.640625 783.617188 507.640625 Z M 657.871094 390.609375 C 683.015625 390.609375 703.46875 370.125 703.46875 344.949219 C 703.46875 319.765625 683.015625 299.285156 657.871094 299.285156 C 632.726562 299.285156 612.269531 319.769531 612.269531 344.949219 C 612.269531 370.125 632.726562 390.609375 657.871094 390.609375 Z M 657.871094 289.058594 C 627.09375 289.058594 602.058594 314.128906 602.058594 344.949219 C 602.058594 375.765625 627.09375 400.835938 657.871094 400.835938 C 688.644531 400.835938 713.683594 375.765625 713.683594 344.949219 C 713.683594 314.128906 688.644531 289.058594 657.871094 289.058594 Z M 657.871094 289.058594 "/></g></g></svg>