<svg xmlns="http://www.w3.org/2000/svg" xmlns:xlink="http://www.w3.org/1999/xlink" width="1920" zoomAndPan="magnify" viewBox="0 0 1440 809.999993" height="1080" preserveAspectRatio="xMidYMid meet" version="1.2"><g id="22eabc13c8"><path style=" stroke:none;fill-rule:evenodd;fill:#000000;fill-opacity:1;" d="M 632.402344 221.277344 C 698.421875 182.210938 741.964844 182.441406 807.929688 221.496094 C 810.054688 222.753906 811.238281 224.992188 811.238281 227.292969 L 811.25 227.292969 L 811.25 300.238281 C 811.25 326.890625 799.617188 349.566406 777.949219 365.132812 L 723.910156 403.96875 C 721.460938 405.734375 718.226562 405.609375 715.933594 403.882812 L 662.015625 365.132812 C 640.351562 349.5625 628.714844 326.890625 628.714844 300.234375 L 628.714844 227.292969 C 628.714844 224.667969 630.214844 222.394531 632.402344 221.277344 Z M 801.433594 421.492188 L 826.386719 410.097656 C 830.976562 408.003906 836.417969 410.03125 838.511719 414.621094 L 886.371094 519.425781 C 888.46875 524.015625 886.4375 529.457031 881.847656 531.550781 L 856.894531 542.945312 C 852.90625 544.765625 848.222656 543.484375 845.691406 540.003906 L 824.875 560.820312 C 829.167969 576.242188 817.738281 591.679688 801.441406 591.679688 L 801.441406 591.707031 C 801.175781 591.707031 800.910156 591.703125 800.648438 591.695312 C 799.382812 609.417969 775.75 620.863281 759.453125 609.125 C 751.800781 622.859375 727.726562 627.730469 713.667969 613.675781 L 708.472656 608.476562 C 705.617188 611.902344 701.359375 614.292969 696.71875 615.664062 C 686.730469 618.609375 672.339844 617.605469 659.601562 609.308594 C 626.785156 587.921875 622.628906 561.523438 596.1875 544.457031 C 595.96875 544.316406 595.464844 543.953125 594.765625 543.445312 C 592.414062 547.46875 587.351562 549.101562 583.066406 547.144531 L 558.113281 535.753906 C 553.523438 533.65625 551.492188 528.21875 553.589844 523.625 L 603.367188 414.621094 C 605.460938 410.03125 610.902344 408.003906 615.492188 410.101562 L 640.445312 421.492188 C 643.582031 422.921875 645.578125 425.957031 645.777344 429.273438 C 661.152344 425.367188 673.957031 416.648438 691.550781 422.714844 C 706.800781 412.800781 723.226562 410.890625 738.847656 419.859375 L 738.839844 419.871094 C 757.878906 430.035156 777.082031 434.480469 796.410156 432.246094 C 795.226562 427.957031 797.324219 423.367188 801.429688 421.492188 Z M 839.574219 527.042969 L 802.136719 445.0625 C 779.011719 448.722656 754.957031 443.949219 732.339844 431.636719 L 732.164062 431.539062 L 732.15625 431.558594 C 726.796875 428.480469 721.257812 427.136719 715.597656 427.648438 C 709.441406 428.207031 702.683594 431.042969 696.898438 435.5625 C 696.324219 436.039062 695.671875 436.414062 694.980469 436.675781 C 692.125 438.582031 689.367188 440.285156 686.75 441.90625 C 682.296875 444.660156 678.296875 447.132812 673.785156 450.898438 C 671.019531 453.207031 668.660156 456.484375 669.671875 460.035156 C 670.292969 462.226562 670.894531 464.015625 671.496094 465.816406 C 674.082031 473.527344 676.707031 481.363281 675.042969 491.089844 C 674.96875 499.019531 675.765625 504.675781 677.230469 508.359375 C 678.449219 511.425781 679.421875 512.289062 681.816406 511.625 C 683.90625 511.046875 686.390625 509.550781 689.152344 507.273438 C 699.25 498.949219 704.109375 490.304688 702.28125 474.960938 C 702.015625 472.742188 702.984375 469.898438 704.070312 468.105469 C 708.5625 460.699219 717.679688 461.304688 725.503906 464.425781 C 731.894531 466.972656 739.628906 471.917969 747.878906 479.433594 C 748.050781 479.589844 748.210938 479.753906 748.363281 479.925781 L 817.03125 549.582031 Z M 828.066406 424.109375 L 810.921875 431.9375 L 855.214844 528.933594 L 872.359375 521.105469 Z M 630.957031 431.9375 L 613.8125 424.109375 L 567.601562 525.304688 L 584.746094 533.132812 Z M 640.246094 443.957031 L 600.515625 530.96875 C 602.0625 532.113281 603.222656 532.96875 603.460938 533.125 C 632.789062 552.050781 636.679688 578.316406 666.929688 598.027344 C 682.632812 608.261719 697.960938 602.171875 698.449219 599.324219 C 698.527344 598.867188 698.046875 598.054688 696.839844 596.847656 L 676.019531 576.027344 C 673.382812 573.394531 673.382812 569.121094 676.019531 566.488281 C 678.652344 563.855469 682.925781 563.855469 685.558594 566.488281 L 723.210938 604.136719 C 731.570312 612.496094 745.574219 607.746094 747.980469 602.035156 C 748.65625 600.4375 748.128906 598.320312 745.722656 595.914062 L 703.898438 554.09375 C 701.261719 551.460938 701.261719 547.1875 703.898438 544.554688 C 706.53125 541.921875 710.804688 541.921875 713.4375 544.554688 L 765.480469 596.589844 C 772.816406 603.929688 783.832031 599.597656 786.605469 593.203125 C 787.683594 590.707031 787.230469 587.609375 784.214844 584.59375 L 731.773438 532.160156 C 729.140625 529.527344 729.140625 525.253906 731.773438 522.621094 C 734.410156 519.988281 738.679688 519.988281 741.316406 522.621094 L 793.753906 575.054688 C 795.863281 577.164062 798.648438 578.21875 801.4375 578.21875 L 801.4375 578.242188 C 806.78125 578.242188 811.363281 574.34375 812.164062 569.027344 C 812.46875 567.011719 812.21875 564.9375 811.421875 563.0625 L 738.777344 489.367188 C 732.332031 483.171875 721.671875 476.039062 715.90625 475.695312 C 717.550781 494.90625 710.417969 507.167969 697.691406 517.660156 C 690.445312 523.628906 681.261719 527.988281 673 523.460938 C 669.5 521.542969 666.6875 518.214844 664.738281 513.316406 C 662.625 508.007812 661.484375 500.535156 661.605469 490.617188 C 661.59375 490.160156 661.628906 489.691406 661.714844 489.222656 C 663.332031 480.460938 659.039062 471.9375 656.703125 463.726562 C 654.160156 454.785156 658.34375 446.246094 665.140625 440.574219 C 667.707031 438.429688 670.113281 436.664062 672.5 435.050781 C 661.960938 437.300781 653.476562 442.5 640.246094 443.957031 Z M 684.324219 305.960938 L 706.070312 323.226562 C 709.800781 326.191406 714.371094 327.363281 718.753906 326.863281 C 724.050781 326.257812 728.019531 323.664062 731.1875 319.207031 L 758.632812 283.035156 C 761.507812 279.242188 762.578125 274.664062 761.980469 270.324219 C 759.910156 255.230469 740.515625 250.035156 731.242188 262.257812 L 713.753906 285.3125 L 705.777344 278.980469 C 702.046875 276.015625 697.472656 274.84375 693.09375 275.34375 C 677.902344 277.078125 672.320312 296.417969 684.324219 305.960938 Z M 691.3125 292.898438 C 691.421875 293.859375 691.894531 294.773438 692.707031 295.421875 L 714.652344 312.835938 C 716.171875 314.011719 718.773438 313.625 719.96875 311.785156 L 719.976562 311.789062 L 720.257812 311.390625 L 747.933594 274.917969 C 749.878906 272.351562 747.847656 268.464844 744.410156 268.9375 C 743.460938 269.066406 742.5625 269.558594 741.941406 270.375 L 720.59375 298.515625 C 718.324219 301.742188 713.9375 302.660156 710.75 300.125 L 697.394531 289.519531 C 694.796875 287.457031 690.925781 289.546875 691.308594 292.898438 Z M 652.585938 232.921875 C 650.339844 234.019531 648.792969 236.324219 648.792969 238.988281 L 648.792969 298.585938 C 648.792969 318.96875 657.507812 335.9375 674.078125 347.84375 L 715.933594 377.925781 C 718.222656 379.652344 721.457031 379.773438 723.910156 378.011719 L 765.886719 347.84375 C 782.457031 335.9375 791.167969 318.96875 791.167969 298.585938 L 791.167969 238.988281 L 791.160156 238.988281 C 791.15625 236.632812 789.917969 234.347656 787.71875 233.113281 C 737.128906 204.734375 703.183594 204.597656 652.585938 232.921875 Z M 719.980469 225.257812 C 702.109375 225.257812 684.015625 231.15625 662.289062 242.957031 L 662.289062 298.585938 C 662.289062 314.738281 668.828125 327.519531 681.933594 336.933594 L 719.980469 364.277344 L 758.03125 336.933594 C 771.132812 327.519531 777.671875 314.738281 777.671875 298.582031 L 777.671875 242.957031 C 755.945312 231.15625 737.855469 225.257812 719.980469 225.257812 Z M 719.980469 205.546875 C 695.957031 205.546875 671.652344 214.082031 642.207031 231.144531 L 642.207031 300.238281 C 642.207031 322.667969 651.671875 341.148438 669.871094 354.226562 L 719.980469 390.238281 L 770.09375 354.226562 C 788.292969 341.148438 797.753906 322.667969 797.753906 300.238281 L 797.753906 231.144531 C 768.308594 214.082031 744.003906 205.546875 719.980469 205.546875 Z M 719.980469 205.546875 "/></g></svg>